<?xml version="1.0" ?><!DOCTYPE svg  PUBLIC '-//W3C//DTD SVG 1.1//EN'  'http://www.w3.org/Graphics/SVG/1.1/DTD/svg11.dtd'><svg enable-background="new 0 0 512 512" height="512px" id="Layer_3" version="1.1" viewBox="0 0 512 512" width="512px" xml:space="preserve" xmlns="http://www.w3.org/2000/svg" xmlns:xlink="http://www.w3.org/1999/xlink"><g><polygon fill="#F23557" points="436.392,488.03 370.73,283.035 341.795,292.305 380.011,411.609 131.996,411.609 170.208,292.303    141.274,283.037 90.362,441.991 389.743,441.991 407.458,497.3  "/><g><path d="M266.006,32.855c-5.5,0-14.5,0-20,0h-7.95c-5.5,0-10,4.5-10,10v152.382c0,5.5,4.5,10,10,10h7.95    c5.5,0,14.5,0,20,0h7.947c5.5,0,10-4.5,10-10V42.855c0-5.5-4.5-10-10-10H266.006z" fill="#F23557"/></g><g><path d="M260.9,14.7c-2.693,0-7.1,0-9.793,0s-4.896,4.5-4.896,10v148.751c0,5.5,2.203,10,4.896,10s7.1,0,9.793,0    s4.897-4.5,4.897-10V24.7C265.798,19.2,263.594,14.7,260.9,14.7z" fill="#F23557"/></g><path d="M107.641,385.842c-22.123,0-41.104,13.45-49.212,32.622c-0.305,0.718-0.588,1.45-0.862,2.185   c-0.029,0.081-0.063,0.158-0.093,0.237c-2.099,5.728-3.243,11.914-3.243,18.368c0,29.5,23.911,53.411,53.41,53.411v-0.005l0,0   c29.498,0,53.409-23.912,53.409-53.411C161.05,409.753,137.139,385.842,107.641,385.842z" fill="#3B4A6B"/><path d="M107.641,420.305v-0.003c-10.451,0-18.952,8.503-18.952,18.952l0,0c0,0.001,0,0.001,0,0.001   c0,10.45,8.501,18.951,18.952,18.951c10.448,0,18.95-8.501,18.95-18.951C126.591,428.806,118.089,420.305,107.641,420.305z" fill="#F0D43A"/><g><path d="M73.051,205.234v25.083c0,73.792,58.889,133.832,132.235,135.689c1.164,0.03,2.332,0.044,3.503,0.044H256    h47.214c74.966,0,135.736-60.77,135.736-135.733v-25.083v-15.188L73.051,200.785V205.234z" fill="#22B2DA"/><path d="M303.214,44.418H256h-47.211c-1.171,0-2.339,0.015-3.503,0.044    C143.646,46.024,92.223,88.68,77.378,146.056l361.572,43.991v-9.894C438.95,105.188,378.18,44.418,303.214,44.418z" fill="#22B2DA"/><path d="M77.378,146.056L54.23,143.24v58.097l18.82-0.552v-20.632C73.051,168.376,74.558,156.952,77.378,146.056z" fill="none"/><path d="M73.051,180.153v20.632l365.899-10.738L77.378,146.056C74.558,156.952,73.051,168.376,73.051,180.153z" fill="#3B4A6B"/></g><g><path d="M266.006,190.047c-5.5,0-14.5,0-20,0H31.547c-5.5,0-10,4.5-10,10v10.381c0,5.5,4.5,10,10,10h214.459    c5.5,0,14.5,0,20,0h214.447c5.5,0,10-4.5,10-10v-10.381c0-5.5-4.5-10-10-10H266.006z" fill="#F23557"/></g><g><path d="M47.5,220.012c0,5.5-4.5,10-10,10h-5.953c-5.5,0-10-4.5-10-10v-29.549c0-5.5,4.5-10,10-10H37.5    c5.5,0,10,4.5,10,10V220.012z" fill="#22B2DA"/></g></g></svg>